<svg xmlns="http://www.w3.org/2000/svg" width="438" height="396" fill="none"><path fill="url(#a)" d="M77.062 162.89c.143-.061.294-.099.448-.113l84.644-7.851a1.499 1.499 0 0 1 1.617 1.232c.043.245.026.498-.053.734l-25.766 77.757a1.507 1.507 0 0 1-1.376 1.027l-83.467 2.735a1.504 1.504 0 0 1-1.254-.605 1.504 1.504 0 0 1-.217-1.376l24.59-72.64a1.493 1.493 0 0 1 .834-.9Zm83.084-4.764-81.388 7.55-23.58 69.663 80.255-2.629 24.713-74.584Z"/><path fill="url(#b)" d="M176.887 153.916c.154-.065.317-.104.483-.116l201.411-13.966a1.505 1.505 0 0 1 1.28.565 1.5 1.5 0 0 1 .257 1.376l-56.03 180.992a1.501 1.501 0 0 1-1.433 1.057l-198.007.01a1.492 1.492 0 0 1-1.21-.613 1.506 1.506 0 0 1-.222-1.339l52.627-167.037a1.486 1.486 0 0 1 .844-.929Zm199.917-10.936-198.206 13.745-51.703 164.109 194.854-.01 55.055-177.844Z"/><path fill="url(#c)" d="M89.063 115.944c.146-.062.301-.101.46-.114l308.601-26.08a1.506 1.506 0 0 1 1.302.561 1.512 1.512 0 0 1 .254 1.393l-8.69 27.127a1.506 1.506 0 0 1-1.314 1.038L82.465 143.405a1.5 1.5 0 0 1-1.553-1.923l7.297-24.583a1.499 1.499 0 0 1 .853-.955Zm307.072-23.013L90.791 118.736l-6.386 21.511 304.029-23.293 7.701-24.023Z"/><path fill="url(#d)" d="M49.063 247.89c.167-.071.347-.11.529-.116l83.2-3.255a1.491 1.491 0 0 1 1.255.594 1.498 1.498 0 0 1 .23 1.37l-24.742 75.885a1.506 1.506 0 0 1-1.425 1.04l-83.045.004a1.497 1.497 0 0 1-1.22-.626 1.505 1.505 0 0 1-.202-1.356l24.59-72.64a1.51 1.51 0 0 1 .83-.9Zm81.693-.286L50.74 250.73l-23.588 69.68 79.866-.005 23.738-72.801Z"/><defs><linearGradient id="a" x1="90.852" x2="153.288" y1="157.036" y2="235.594" gradientUnits="userSpaceOnUse"><stop stop-color="#F79EC7"/><stop offset="1" stop-color="#430E1B" stop-opacity=".608"/></linearGradient><linearGradient id="b" x1="212.389" x2="361.328" y1="138.844" y2="322.594" gradientUnits="userSpaceOnUse"><stop stop-color="#F79EC7"/><stop offset="1" stop-color="#430E1B" stop-opacity=".608"/></linearGradient><linearGradient id="c" x1="216.977" x2="290.21" y1="61.639" y2="178.457" gradientUnits="userSpaceOnUse"><stop stop-color="#F79EC7"/><stop offset="1" stop-color="#430E1B" stop-opacity=".608"/></linearGradient><linearGradient id="d" x1="61.416" x2="126.272" y1="242.645" y2="322.122" gradientUnits="userSpaceOnUse"><stop stop-color="#F79EC7"/><stop offset="1" stop-color="#430E1B" stop-opacity=".608"/></linearGradient></defs></svg>