<svg xmlns="http://www.w3.org/2000/svg" width="80" height="80" fill="none"><path fill="#fff" d="M44.047 65.99 10 60.833V20.554l.1.015c1.534-.303 16.58-4.63 26.541-7.528l.14-.041 32.53 3.96a.715.715 0 0 1 .62.645v.053H70v38.186l-25.886 10.12V66l-.067-.01Zm.07-1.518 22.352-8.738-22.353-2.646v11.384Zm-1.395-.09V52.923l-5.814-.688-23.25 7.748 29.064 4.4Zm-31.325-5.11 24.744-8.244V25.916l-24.744-3.748v37.104Zm57.211-4.682V18.622l-24.491 8.19v24.877l24.491 2.9Zm-25.886-3.066V26.912l-5.186-.785V50.91l5.186.613Zm.634-25.921 22.81-7.628-28.63-3.486v10.233l5.82.88ZM36.14 24.51v-9.878c-2.01.584-7.105 2.063-12.207 3.527a1118.81 1118.81 0 0 1-10.366 2.935l22.573 3.416Z"/></svg>