<svg xmlns="http://www.w3.org/2000/svg" width="80" height="80" fill="none"><path fill="#fff" d="M24.861 70a2.928 2.928 0 0 1-2.062-.85 2.899 2.899 0 0 1-.856-2.052V45.175L10 40.51l11.943-4.518v-24.09c.001-.77.309-1.507.856-2.051A2.928 2.928 0 0 1 24.862 9h28.962c.773 0 1.514.307 2.06.85.547.545.855 1.283.856 2.052v24.043L70 41.505l-13.26 4.739v20.853c0 .77-.309 1.507-.855 2.051a2.927 2.927 0 0 1-2.061.851L24.862 70Zm-1.718-2.902c.001.453.183.887.505 1.207.322.32.758.5 1.213.5h28.963c.455 0 .891-.18 1.213-.5.322-.32.503-.754.503-1.207V46.673L39.997 52.23l-16.855-6.584.001 21.453Zm16.873-16.146 15.525-5.549v-33.5c0-.453-.181-.888-.503-1.208a1.724 1.724 0 0 0-1.214-.502H24.862c-.455 0-.892.181-1.214.502-.322.32-.503.755-.504 1.208V44.36l16.872 6.592Zm16.725-5.977 9.957-3.559-9.957-4.174v7.733Zm-43.41-4.448 8.612 3.365v-6.623l-8.613 3.258Zm22.756 22.898c0-.859.344-1.682.954-2.29a3.266 3.266 0 0 1 2.3-.95c.863 0 1.691.342 2.301.95.61.607.954 1.431.955 2.29a3.237 3.237 0 0 1-.955 2.29c-.61.608-1.438.95-2.301.95a3.268 3.268 0 0 1-2.3-.95 3.235 3.235 0 0 1-.954-2.29Zm1.2 0c0 .542.217 1.062.602 1.446a2.063 2.063 0 0 0 2.906 0c.386-.383.603-.903.603-1.446 0-.542-.217-1.062-.603-1.446a2.062 2.062 0 0 0-2.906 0 2.043 2.043 0 0 0-.603 1.446ZM27.266 40.633V24.195l10.793-2.9 12.794 1.556a.609.609 0 0 1 .537.597h.027v15.169L41.281 42.72v.036l-14.015-2.123Zm14.014.799 8.937-3.618V24.277l-8.937 2.99v14.165Zm-12.814-1.826 11.615 1.759V27.349l-11.615-1.757v14.014Zm12.159-13.38 7.493-2.508-9.971-1.213-7.958 2.14 10.436 1.58Z"/></svg>