<svg xmlns="http://www.w3.org/2000/svg" width="90" height="69" fill="none"><path fill="#FFE1E9" d="M4.639 68.893A4.645 4.645 0 0 1 0 64.254V4.639A4.644 4.644 0 0 1 4.639 0h80.128a4.644 4.644 0 0 1 4.639 4.639v59.615a4.645 4.645 0 0 1-4.639 4.64l-80.128-.001ZM2 4.639v59.615a2.643 2.643 0 0 0 2.639 2.64h80.128a2.642 2.642 0 0 0 2.639-2.64V4.639A2.642 2.642 0 0 0 84.767 2H4.639A2.643 2.643 0 0 0 2 4.639ZM40.759 57.4a4.326 4.326 0 0 1-4.321-4.321V29.373a4.326 4.326 0 0 1 4.321-4.321h6.053a4.326 4.326 0 0 1 4.321 4.321v23.705a4.328 4.328 0 0 1-4.322 4.322h-6.052Zm-2.321-28.027V53.08a2.323 2.323 0 0 0 2.321 2.32h6.052a2.323 2.323 0 0 0 2.322-2.322V29.373a2.322 2.322 0 0 0-2.32-2.32h-6.054a2.323 2.323 0 0 0-2.321 2.32ZM61.78 57.4a4.326 4.326 0 0 1-4.321-4.321v-29.7a4.326 4.326 0 0 1 4.321-4.321h6.053a4.326 4.326 0 0 1 4.321 4.321v29.7a4.326 4.326 0 0 1-4.321 4.321H61.78Zm-2.322-34.016v29.7A2.324 2.324 0 0 0 61.78 55.4h6.053a2.324 2.324 0 0 0 2.321-2.321v-29.7a2.324 2.324 0 0 0-2.321-2.321H61.78a2.324 2.324 0 0 0-2.322 2.326ZM20.656 57.4a4.326 4.326 0 0 1-4.321-4.321v-15.1a4.326 4.326 0 0 1 4.321-4.321h6.053a4.326 4.326 0 0 1 4.321 4.321v15.1a4.326 4.326 0 0 1-4.321 4.321h-6.053Zm-2.321-19.424v15.1a2.324 2.324 0 0 0 2.321 2.324h6.053a2.324 2.324 0 0 0 2.321-2.321v-15.1a2.323 2.323 0 0 0-2.321-2.32h-6.053a2.323 2.323 0 0 0-2.321 2.317Z"/></svg>