<svg xmlns="http://www.w3.org/2000/svg" width="72" height="50" fill="none"><path fill="#fff" d="m19.527 29.4-15.85-8.2 15.55-8.3a2.278 2.278 0 0 0 1.45-2 2.113 2.113 0 0 0-2.1-2.1 2.924 2.924 0 0 0-1.35.5l-15.05 8.3a3.463 3.463 0 0 0-2.15 3.65 3.65 3.65 0 0 0 2.05 3.65l15.25 8.15c.378.227.81.348 1.25.35a2.08 2.08 0 0 0 2.1-2.1 2.3 2.3 0 0 0-1.15-1.9Zm9.55 19.15 16.5-45.7c.45-1.35.25-2.85-1.65-2.85a2.067 2.067 0 0 0-1.85 1.6l-16.35 45.15a3.238 3.238 0 0 0-.25 1.05 1.814 1.814 0 0 0 1.85 1.85 1.9 1.9 0 0 0 1.75-1.1Zm22.65-19.15a2.301 2.301 0 0 0-1.15 1.9 2.078 2.078 0 0 0 2.1 2.1c.44-.002.873-.123 1.25-.35l15.25-8.15a3.649 3.649 0 0 0 2.05-3.65 3.463 3.463 0 0 0-2.15-3.65l-15.05-8.3a2.924 2.924 0 0 0-1.35-.5 2.113 2.113 0 0 0-2.1 2.1 2.277 2.277 0 0 0 1.45 2l15.55 8.3-15.85 8.2Z"/></svg>