<svg xmlns="http://www.w3.org/2000/svg" width="80" height="80" fill="none"><path fill="#fff" d="M35.972 68.22a5.833 5.833 0 0 1-2.032-4.393v-.535H16.755c-.996 0-1.95-.393-2.655-1.094a3.725 3.725 0 0 1 0-5.283 3.764 3.764 0 0 1 2.655-1.094h1.126c-.32-3.94-.318-7.9.007-11.84.28-3.762.97-7.483 2.061-11.096a27.215 27.215 0 0 1 5.447-10.122 18.196 18.196 0 0 1 10.26-5.828h-.231V15.37a5.706 5.706 0 0 1 1.36-3.759A4.506 4.506 0 0 1 40.197 10a4.48 4.48 0 0 1 3.412 1.612 5.71 5.71 0 0 1 1.362 3.758v1.612A18.181 18.181 0 0 1 55 22.762a27.257 27.257 0 0 1 5.447 10.125 51.617 51.617 0 0 1 2.061 11.096c.325 3.934.327 7.887.009 11.822l.63-.013h.084c1 .001 1.958.397 2.664 1.1A3.746 3.746 0 0 1 67 59.542a3.746 3.746 0 0 1-1.106 2.65 3.785 3.785 0 0 1-2.665 1.101h-15.61v.535a5.833 5.833 0 0 1-2.032 4.393A7.196 7.196 0 0 1 40.781 70a7.195 7.195 0 0 1-4.809-1.78Zm-.531-4.393c0 2.58 2.394 4.677 5.337 4.677 2.942 0 5.338-2.098 5.338-4.677v-.535H35.44l.001.535Zm-20.94-4.27c0 .595.239 1.165.661 1.585.422.42.995.657 1.593.657h46.473c.6 0 1.178-.238 1.603-.661.425-.423.665-.997.665-1.596a2.251 2.251 0 0 0-1.435-2.096c-.28-.11-.58-.164-.881-.158l-2.338.05.099-.852c.39-4.124.411-8.274.066-12.402a50.157 50.157 0 0 0-2-10.759 25.79 25.79 0 0 0-5.131-9.563 16.78 16.78 0 0 0-5.664-4.172 19.536 19.536 0 0 0-8.016-1.583 19.55 19.55 0 0 0-8.015 1.585 16.757 16.757 0 0 0-5.664 4.172 25.787 25.787 0 0 0-5.135 9.577 50.25 50.25 0 0 0-1.998 10.772c-.344 4.12-.32 8.262.069 12.377l.097.835h-2.795c-.596 0-1.168.235-1.59.654-.422.418-.66.986-.663 1.578Zm22.421-44.185v1.352a24.207 24.207 0 0 1 3.271-.216c1.094-.002 2.188.07 3.272.216v-1.352c0-2.137-1.468-3.877-3.272-3.877-1.804 0-3.27 1.74-3.27 3.877Z"/></svg>