<svg xmlns="http://www.w3.org/2000/svg" width="80" height="80" fill="none"><path fill="#fff" d="M13.743 60a3.744 3.744 0 0 1-2.645-1.1A3.762 3.762 0 0 1 10 56.248V22.75a3.76 3.76 0 0 1 1.098-2.65A3.743 3.743 0 0 1 13.743 19h52.515a3.743 3.743 0 0 1 2.645 1.1A3.76 3.76 0 0 1 70 22.752v33.497a3.761 3.761 0 0 1-1.098 2.651A3.742 3.742 0 0 1 66.258 60H13.743Zm-2.425-3.752c.001.644.257 1.262.712 1.718.454.456 1.07.712 1.713.713h52.515c.643-.001 1.26-.258 1.714-.713.454-.456.71-1.074.71-1.718V32.984H11.317l.002 23.264Zm0-24.586h57.367v-4.845H11.318v4.845Zm57.367-6.166v-2.742c-.001-.645-.257-1.262-.711-1.718a2.425 2.425 0 0 0-1.714-.713H13.745c-.643.001-1.259.258-1.713.713a2.437 2.437 0 0 0-.712 1.717v2.743h57.365Zm-15.12 30.107a2.494 2.494 0 0 1-1.709-.836 2.506 2.506 0 0 1-.626-1.8 2.495 2.495 0 0 1 2.334-2.633h8.79c.656.043 1.27.343 1.706.836.437.493.661 1.14.625 1.798a2.505 2.505 0 0 1-.624 1.798 2.494 2.494 0 0 1-1.708.837h-8.789Zm-1.017-2.635a1.213 1.213 0 0 0 1.016 1.314h8.79a1.192 1.192 0 0 0 1.013-1.314 1.198 1.198 0 0 0-1.014-1.312h-8.789a1.193 1.193 0 0 0-1.018 1.31l.002.002Z"/></svg>