<svg xmlns="http://www.w3.org/2000/svg" width="26" height="23" fill="none"><path fill="#fff" d="M.002 0h4.076v12.849c-.015.9.108 1.798.364 2.662a5.2 5.2 0 0 0 1.066 1.93 4.434 4.434 0 0 0 1.72 1.178 6.4 6.4 0 0 0 2.34.4 6.374 6.374 0 0 0 2.337-.4 4.472 4.472 0 0 0 1.72-1.178 5.17 5.17 0 0 0 1.066-1.93c.257-.864.38-1.761.364-2.662V0h4.073v13.02c.007.935-.097 1.867-.31 2.778a9.526 9.526 0 0 1-.9 2.36 8.128 8.128 0 0 1-3.326 3.3 9.418 9.418 0 0 1-2.329.872c-.885.204-1.791.305-2.7.3a11 11 0 0 1-3.916-.665 8.5 8.5 0 0 1-3.019-1.91 8.491 8.491 0 0 1-1.94-3.024A11.077 11.077 0 0 1 0 13.02L.002 0Zm25.435 22.165H21.36V0h4.076l.001 22.165Z"/></svg>