<svg xmlns="http://www.w3.org/2000/svg" width="80" height="80" fill="none"><path fill="#fff" d="M17.72 63a7.685 7.685 0 0 1-5.46-2.257 7.654 7.654 0 0 1-2.26-5.45V24.706a7.646 7.646 0 0 1 2.26-5.448A7.68 7.68 0 0 1 17.72 17h44.56a7.689 7.689 0 0 1 5.458 2.256A7.655 7.655 0 0 1 70 24.704v30.59a7.635 7.635 0 0 1-2.262 5.449A7.663 7.663 0 0 1 62.279 63H17.721Zm-6.317-7.705a6.302 6.302 0 0 0 1.852 4.457 6.33 6.33 0 0 0 4.466 1.847h44.558a6.336 6.336 0 0 0 3.86-1.316 6.312 6.312 0 0 0 2.252-3.393L51.72 40.788a1.804 1.804 0 0 0-2.26-.238l-9.597 6.15-12.69-14.949a1.86 1.86 0 0 0-1.286-.668 1.828 1.828 0 0 0-1.344.464L11.403 43.126v12.17Zm41.292-15.514 15.898 15.358V24.705a6.301 6.301 0 0 0-1.851-4.456 6.33 6.33 0 0 0-4.466-1.848H17.72a6.33 6.33 0 0 0-4.466 1.848 6.301 6.301 0 0 0-1.852 4.456v16.552l12.21-10.76a3.216 3.216 0 0 1 2.375-.808 3.246 3.246 0 0 1 2.254 1.157l11.895 14.012 8.564-5.486a3.205 3.205 0 0 1 1.736-.51c.844.002 1.654.33 2.259.917l-.001.002Zm-15.34-10.086a4.968 4.968 0 0 1 1.46-3.509 4.988 4.988 0 0 1 3.514-1.457 4.99 4.99 0 0 1 3.517 1.457 4.967 4.967 0 0 1 1.459 3.509 4.967 4.967 0 0 1-1.46 3.507 4.99 4.99 0 0 1-3.516 1.456 4.988 4.988 0 0 1-3.514-1.457 4.968 4.968 0 0 1-1.459-3.51l-.001.004Zm1.404 0c0 .944.377 1.85 1.046 2.517a3.579 3.579 0 0 0 2.524 1.045 3.58 3.58 0 0 0 2.525-1.044 3.563 3.563 0 0 0 1.048-2.518c0-.946-.378-1.852-1.048-2.52a3.58 3.58 0 0 0-2.525-1.045 3.579 3.579 0 0 0-2.522 1.045 3.564 3.564 0 0 0-1.046 2.517l-.003.003Z"/></svg>