<svg xmlns="http://www.w3.org/2000/svg" width="50" height="28" fill="none"><path fill="#fff" d="M.002 0h4.866v15.337a10.542 10.542 0 0 0 .435 3.177 6.2 6.2 0 0 0 1.267 2.3 5.292 5.292 0 0 0 2.053 1.406c.893.331 1.84.493 2.793.476a7.607 7.607 0 0 0 2.788-.476c.787-.3 1.49-.782 2.055-1.406a6.168 6.168 0 0 0 1.271-2.3c.307-1.03.453-2.102.435-3.177V0h4.866v15.54a14.17 14.17 0 0 1-.37 3.316 11.37 11.37 0 0 1-1.069 2.817 9.699 9.699 0 0 1-3.973 3.94c-.876.469-1.81.819-2.779 1.042-1.057.243-2.139.362-3.224.356a13.133 13.133 0 0 1-4.675-.8 10.14 10.14 0 0 1-3.6-2.28 10.135 10.135 0 0 1-2.32-3.604A13.221 13.221 0 0 1 0 15.54V0Zm40.182 12.978 9.394 13.477h-5.75l-7-10.3-6.81 10.3h-5.4l9.13-13.44L25.126 0h5.706l6.32 9.855L43.477 0h5.394l-8.688 12.978Z"/></svg>