<svg xmlns="http://www.w3.org/2000/svg" width="80" height="80" fill="none"><path fill="#fff" d="M28.322 67.644a29.905 29.905 0 0 1-9.535-6.43 29.94 29.94 0 0 1-6.43-9.535A29.812 29.812 0 0 1 10 40a29.815 29.815 0 0 1 2.357-11.679 29.93 29.93 0 0 1 6.43-9.534 29.825 29.825 0 0 1 9.535-6.429A29.806 29.806 0 0 1 40 10a29.807 29.807 0 0 1 11.677 2.36 29.825 29.825 0 0 1 9.536 6.428A29.89 29.89 0 0 1 70 40a29.9 29.9 0 0 1-8.788 21.213 29.907 29.907 0 0 1-21.213 8.787 29.802 29.802 0 0 1-11.677-2.357Zm-8.568-7.395a28.53 28.53 0 0 0 9.102 6.136A28.453 28.453 0 0 0 40 68.635c3.829.007 7.62-.758 11.147-2.25a28.502 28.502 0 0 0 9.51-6.556L40.11 41.36 19.016 59.482c.24.26.486.515.737.766Zm41.827-1.427c2-2.286 3.623-4.877 4.804-7.676a28.463 28.463 0 0 0 2.25-11.145 28.475 28.475 0 0 0-2.25-11.146 28.445 28.445 0 0 0-3.962-6.67l-21.27 18.276L61.58 58.822ZM13.614 28.856a28.501 28.501 0 0 0-2.249 11.146 28.49 28.49 0 0 0 6.744 18.46L39.084 40.44 18.085 21.568a28.495 28.495 0 0 0-4.47 7.288ZM40.13 39.544l21.418-18.402c-.417-.475-.85-.937-1.301-1.387a28.506 28.506 0 0 0-9.1-6.136 28.476 28.476 0 0 0-11.147-2.25 28.462 28.462 0 0 0-11.144 2.25 28.536 28.536 0 0 0-9.102 6.136c-.26.26-.515.523-.764.791l21.14 18.998Z"/></svg>