<svg xmlns="http://www.w3.org/2000/svg" width="574" height="681" fill="none"><path fill="#FFFDFF" d="M384.667 598.546a15522.033 15522.033 0 0 1-53.175-68.326c-21.227-25.951-45.13-52.821-73.073-82.148-26.172-27.469-52.723-53.8-77.517-78.167-2.228-2.19-4.458-4.38-6.69-6.57-18.57-18.229-37.77-37.079-56.005-56.224-9.824-10.313-18.586-19.88-26.788-29.247-9.21-10.52-17.48-20.518-25.285-30.568-7.539-9.707-15.335-20.384-23.172-31.732-6.6-9.563-13.45-19.917-20.353-30.774l-.123-.193-.04-.224c-4.35-23.935-8.4-48.249-12.028-72.268a2462.864 2462.864 0 0 1-9.866-72.6 55.928 55.928 0 0 1-.539-9.054c.05-3.094.863-6.128 2.366-8.834a14.756 14.756 0 0 1 3.982-4.4 17.76 17.76 0 0 1 5.273-2.65 21.371 21.371 0 0 1 11.846-.23 29.87 29.87 0 0 1 10.271 5.27 53.342 53.342 0 0 1 8.252 8.062 94.895 94.895 0 0 1 7.051 9.517 107.691 107.691 0 0 1 5.837 10.2c3.505 7.06 6.415 14.4 8.7 21.944 2.113 6.816 4.025 14.4 5.844 23.182 1.582 7.644 2.892 15.143 4.317 23.45 2.19 12.738 4.683 26.211 8.93 38.606a99.797 99.797 0 0 0 7.835 17.609 75.085 75.085 0 0 0 5.241 7.934 66.62 66.62 0 0 0 6.311 7.2 128.081 128.081 0 0 0 10.468 8.9 105.597 105.597 0 0 1 12.858 11.361 40.53 40.53 0 0 1 4.812 6.464 34.618 34.618 0 0 1 3.346 7.353 25.955 25.955 0 0 1 1.257 7.814 20.526 20.526 0 0 1-1.5 7.794l-2.163-.886a18.197 18.197 0 0 0 1.33-6.913 23.657 23.657 0 0 0-1.149-7.111 32.3 32.3 0 0 0-3.123-6.855 38.286 38.286 0 0 0-4.535-6.09 103.713 103.713 0 0 0-12.58-11.1 129.727 129.727 0 0 1-10.658-9.072 68.89 68.89 0 0 1-6.533-7.45 77.71 77.71 0 0 1-5.407-8.184 102.122 102.122 0 0 1-8.02-18.016c-4.3-12.559-6.816-26.136-9.023-38.967-1.422-8.286-2.727-15.764-4.3-23.373-1.8-8.709-3.7-16.22-5.788-22.964A139.343 139.343 0 0 0 52.81 48.43a105.334 105.334 0 0 0-5.709-9.979 92.576 92.576 0 0 0-6.877-9.282 51.127 51.127 0 0 0-7.888-7.717 27.578 27.578 0 0 0-9.463-4.869 19.021 19.021 0 0 0-10.535.2 15.42 15.42 0 0 0-4.584 2.3 12.439 12.439 0 0 0-3.359 3.708 16.551 16.551 0 0 0-2.052 7.766c-.061 2.9.114 5.799.525 8.67a2458.373 2458.373 0 0 0 9.857 72.526 2471.915 2471.915 0 0 0 11.974 71.975c6.844 10.761 13.632 21.024 20.182 30.506 7.812 11.313 15.582 21.954 23.094 31.628 7.776 10.012 16.018 19.976 25.2 30.461 8.179 9.343 16.92 18.886 26.722 29.175 18.212 19.119 37.4 37.955 55.95 56.171l6.69 6.57c24.809 24.379 51.376 50.728 77.571 78.222 27.988 29.374 51.931 56.292 73.2 82.292l.02.025c.255.33 25.834 33.42 53.178 68.33 36.175 46.183 58.991 74.559 65.984 82.057l-1.706 1.592c-7.141-7.654-29.383-35.314-66.116-82.211Zm48.275-164.55-.035-.034-.032-.037a100.441 100.441 0 0 1-11.359-15.979A140.354 140.354 0 0 1 413 400.359c-4.931-12.109-8.665-25.116-12.277-37.694-2.273-7.918-4.624-16.106-7.24-23.941a277.734 277.734 0 0 0-24.922-54.289c-16.134-27-36.865-51.2-56.913-74.611l-96.519-112.73c-3.246-3.783-7.587-8.553-12.387-11.85a25.848 25.848 0 0 0-7.078-3.527 17.074 17.074 0 0 0-7.572-.58 17.4 17.4 0 0 0-10.644 6.354 25.146 25.146 0 0 0-5.406 11.934c-1.429 8.785 1.063 17.847 3.969 26.331a211.89 211.89 0 0 0 27.177 54.118c4.914 6.925 10.41 13.626 15.725 20.105 7.482 9.122 15.218 18.554 21.5 28.81a129.651 129.651 0 0 1 10.238 20.7 133.534 133.534 0 0 1 9 45.128 129.381 129.381 0 0 1-1.514 23.046l-2.3-.363a127.16 127.16 0 0 0 1.486-22.63 131.214 131.214 0 0 0-6.081-36.477l-45.317 20.8c-3.9 1.786-8.317 3.811-11.25 7.225a12.09 12.09 0 0 0-2.736 5.748 7.99 7.99 0 0 0 1.014 5.747l-1.954 1.276a10.192 10.192 0 0 1-1.361-7.416 14.464 14.464 0 0 1 3.266-6.876c3.266-3.8 7.932-5.941 12.047-7.826l45.561-20.917a127.707 127.707 0 0 0-2.037-5.626 127.245 127.245 0 0 0-10.054-20.317c-6.2-10.12-13.884-19.488-21.316-28.548-5.34-6.512-10.862-13.244-15.824-20.236a214.202 214.202 0 0 1-27.482-54.716c-3-8.771-5.576-18.17-4.064-27.463a27.504 27.504 0 0 1 5.928-13.057 21.969 21.969 0 0 1 5.369-4.68 18.107 18.107 0 0 1 6.709-2.48 19.383 19.383 0 0 1 8.6.65 28.164 28.164 0 0 1 7.726 3.84c5.024 3.45 9.5 8.361 12.833 12.255l96.518 112.735c20.112 23.48 40.909 47.76 57.145 74.932a279.973 279.973 0 0 1 25.132 54.745c2.632 7.883 4.989 16.095 7.269 24.036 3.595 12.519 7.312 25.465 12.195 37.459a138.313 138.313 0 0 0 8.374 17.3 98.308 98.308 0 0 0 11.065 15.575L573.39 566.374l-1.621 1.679-138.827-134.057ZM213.868 228.629c-3.438-1.765-6.993-3.589-8.891-7.1a17.77 17.77 0 0 1-1.692-6.078c-1.085-7.591-.209-24.654-.024-32.32l2.333.058c-.181 7.537-1.066 24.47 0 31.933a15.58 15.58 0 0 0 1.433 5.293c1.554 2.872 4.639 4.456 7.9 6.132 3.4 1.744 6.912 3.548 8.838 6.978l-2.035 1.143c-1.576-2.812-4.629-4.379-7.862-6.039Zm-81.026-59.544a73.01 73.01 0 0 1-.192-6.386v-1.005l.037-.699c.036-1.106.093-2.239.172-3.4a213.795 213.795 0 0 1 3.3-23.056c1.835-10.176 3.733-20.7 3.511-30.972-.062-2.854-.292-5.782-.513-8.612-.471-6.007-.958-12.218.09-18.3 1.337-7.823 5.118-15.017 8.777-21.974a124.317 124.317 0 0 0 6.034-12.594 44.99 44.99 0 0 0 1.992-6.407 32.1 32.1 0 0 0 .818-6.607 29.278 29.278 0 0 0-11.97-23.829 13.545 13.545 0 0 0-6.923-2.893c-5.514-.354-10.163 4.474-13.6 8.718a200.53 200.53 0 0 0-17.669 25.8 205.035 205.035 0 0 0-22.538 58.154C81.922 105.218 77.634 123.58 77 134l-1.5-4.5c.642-10.541 4.117-24.664 6.39-34.978a207.422 207.422 0 0 1 22.793-58.818 202.815 202.815 0 0 1 17.877-26.1c3.787-4.683 8.978-10 15.559-9.58a15.76 15.76 0 0 1 8.135 3.325 31.612 31.612 0 0 1 12.948 25.762 39.846 39.846 0 0 1-2.966 13.82 126.146 126.146 0 0 1-6.144 12.834c-1.8 3.415-3.652 6.945-5.177 10.484a47.629 47.629 0 0 0-3.366 10.8c-1 5.8-.523 11.862-.063 17.726.224 2.863.456 5.823.519 8.743.227 10.507-1.692 21.147-3.547 31.436-1.234 6.84-2.506 13.892-3.11 20.779l11.6-22.975c16.743-33.16 34.054-67.449 57.142-97.538a48.191 48.191 0 0 1 9.734-9.99 21.995 21.995 0 0 1 6.047-3.167 15.486 15.486 0 0 1 6.826-.658c4.521.6 8.532 3.374 11.3 7.826a23.429 23.429 0 0 1 3.381 13.868c-.677 8.762-5.232 16.5-9.636 23.984-.266.458-.533.914-.8 1.37C226.654 75.765 221.5 87 222 102.5l-2.327-1.813c-.287-4.658 1.316-16.653 3.052-20.985a81.327 81.327 0 0 1 6.2-12.43l.806-1.373c4.27-7.255 8.686-14.756 9.321-22.98a21.04 21.04 0 0 0-3.038-12.457 15.77 15.77 0 0 0-4.133-4.529 11.962 11.962 0 0 0-5.486-2.214 13.157 13.157 0 0 0-5.8.564 19.69 19.69 0 0 0-5.4 2.838 46.65 46.65 0 0 0-9.25 9.52c-5.491 7.157-10.771 14.684-16.141 23.013-4.788 7.425-9.536 15.316-14.513 24.124-9.326 16.5-17.932 33.548-26.254 50.031l-14.027 27.773a72.55 72.55 0 0 0 .164 7.329c.261 3.708.892 7.38 1.884 10.962l-2.247.629a58.073 58.073 0 0 1-1.969-11.417Zm148.816-13.2c.292-4.491.865-9.31 1.471-14.412 1.9-15.931 4.043-33.988-1.669-49.274a36.375 36.375 0 0 0-3.871-7.6 27.7 27.7 0 0 0-5.77-6.332 11.17 11.17 0 0 0-2.872-1.743 6.579 6.579 0 0 0-4.729.121c-3.147 1.24-6.166 4.38-8.5 8.842a33.76 33.76 0 0 0-2.593 6.628 28.58 28.58 0 0 0-1.035 6.6 111.697 111.697 0 0 1-1.981 15.536c-.998 5.004-2.002 12.656-2.3 17.749l-1.98-2.651c.299-5.206.961-10.385 1.98-15.5a110.101 110.101 0 0 0 1.948-15.2 34.003 34.003 0 0 1 3.894-14.238 27.009 27.009 0 0 1 4.208-6.034 15.475 15.475 0 0 1 5.509-3.9 8.814 8.814 0 0 1 6.4-.13c1.263.515 2.44 1.22 3.489 2.091a30.048 30.048 0 0 1 6.263 6.864 38.722 38.722 0 0 1 4.121 8.087c5.91 15.815 3.727 34.17 1.8 50.365-1.174 9.865-2.451 25.291-1.398 32.246l-2.583-3.016c-.523-4.097-.159-10.981.2-15.096l-.002-.003Z"/></svg>