<svg xmlns="http://www.w3.org/2000/svg" width="460" height="883" fill="none"><path fill="#fff" d="M425.005 882.033a17.948 17.948 0 0 1-5.837-4.576 74.742 74.742 0 0 1-13.357-20.838 94.886 94.886 0 0 1-6.74-23.911c-.426-2.859-.719-5.8-.9-8.779l-29.343 42.23a15.626 15.626 0 0 1-4.665 4.741 5.661 5.661 0 0 1-4.385.7 7.803 7.803 0 0 1-3.58-2.4 22.64 22.64 0 0 1-3.159-4.3 29.028 29.028 0 0 1-2.174-4.845 48.383 48.383 0 0 1-2.215-10.384 102.93 102.93 0 0 1-.507-18.566 86.121 86.121 0 0 1 3.007-17.654 78.703 78.703 0 0 1 6.751-16.48 81.401 81.401 0 0 1 10.713-15.042 76.04 76.04 0 0 1 5.068-5.16 37.364 37.364 0 0 1 6.355-4.855 15.818 15.818 0 0 1 2.715-1.269l-3.152-45.959c-.475-6.927-.964-14.084-.227-21.161a49.267 49.267 0 0 1-3.6-6.451 3.67 3.67 0 0 1-2.235.22 5.126 5.126 0 0 1-2.579-1.925v-.005c-17.033-20.3-34.647-41.283-49.891-61.991l-3.092-4.2 3.809 2.525 64.809-51.728.389 1.318a169.971 169.971 0 0 0 20.263 44.135c2.269 3.514 4.719 7.018 7.087 10.407 4.651 6.656 9.462 13.537 13.183 20.886a6.137 6.137 0 0 1 .444 4.393 6.202 6.202 0 0 1-2.594 3.571l-1.1.725.059-.035a3.526 3.526 0 0 1 2.373-.606c.75.163 1.443.521 2.012 1.036 5.513 4.355 8.165 9.243 8.862 16.344.012.115.023.232.031.349a2.207 2.207 0 0 1 2.395-.041 2.134 2.134 0 0 1 1.016 1.967 59.158 59.158 0 0 0 .478 10.235 84.104 84.104 0 0 0 2 10.143c1.734 6.759 4.2 13.6 6.585 20.221 1.96 5.44 3.988 11.064 5.622 16.668a91.203 91.203 0 0 1 3.456 17.1 4.35 4.35 0 0 1-4.336 4.743h-.271a6.229 6.229 0 0 1 1.969 2.691 28.024 28.024 0 0 1 1.771 5.346c.821 3.679.918 7.483.286 11.2a28.115 28.115 0 0 1-1.265 4.809 3.174 3.174 0 0 1 1.239 3.718l-.284.8-.022-.005a403.335 403.335 0 0 0-19.891 80.752 11.938 11.938 0 0 1-5.118 8.456 11.73 11.73 0 0 1-.49.3 8.418 8.418 0 0 1-4.249 1.2 8.604 8.604 0 0 1-3.489-.763Zm-24.107-49.593a93.041 93.041 0 0 0 6.607 23.446 72.902 72.902 0 0 0 13.025 20.323 16.488 16.488 0 0 0 5.22 4.133 6.325 6.325 0 0 0 6.07-.338c.136-.078.274-.163.407-.25a10.095 10.095 0 0 0 4.3-7.16 404.986 404.986 0 0 1 20.27-81.921l.071-.2a1.305 1.305 0 0 0-.25-1.052 1.313 1.313 0 0 0-1.176-.51c-4.356.352-8.742.526-13.1.521-1.759.041-3.528.059-5.285.041a80.273 80.273 0 0 1-17.03-1.73 107.795 107.795 0 0 1-4.532-.824 48.119 48.119 0 0 1-7.117-1.666 17.802 17.802 0 0 1-2.731-1.164 18.389 18.389 0 0 1-2.2-1.072c-.085-.05-.167-.1-.247-.149a104.709 104.709 0 0 0-1.177 4.669c-1.952 13.344-3.31 30.238-1.124 44.903h-.001Zm-19.94-58.921c-4.173 2.409-8.665 7.078-10.971 9.647a79.521 79.521 0 0 0-10.469 14.7 76.776 76.776 0 0 0-6.592 16.092 84.166 84.166 0 0 0-2.941 17.273c-.383 6.08-.216 12.183.5 18.233a46.46 46.46 0 0 0 2.124 9.988 27.281 27.281 0 0 0 2.034 4.536 20.76 20.76 0 0 0 2.9 3.951 6.154 6.154 0 0 0 2.7 1.879 3.837 3.837 0 0 0 2.993-.516 13.91 13.91 0 0 0 4.073-4.2l29.9-43.03a104.577 104.577 0 0 1 .889-23.326c.549-3.98 1.256-7.867 2.1-11.565.339-2.328.7-4.549 1.054-6.63l.445-2.587.668 1.2c.238-.743.48-1.46.727-2.151a54.716 54.716 0 0 0-8.373-3.622c-.326-.015-.64-.026-.939-.034a64.278 64.278 0 0 1-10.229-.769l-.4-.087-.019-.033c-.753.289-1.48.641-2.174 1.051Zm54.57 13.907c2.271.102 4.554.154 6.849.156 3.992-.094 7.924-.313 11.765-.528l1.423-.079c.53-1.467.928-2.978 1.19-4.516.591-3.478.5-7.038-.268-10.481a26.143 26.143 0 0 0-1.653-4.99 4.283 4.283 0 0 0-1.424-1.99h-.006a2.879 2.879 0 0 0-1.1-.387l.066.114-1.733-.121a81.89 81.89 0 0 0-16.636.514c-4.821.639-8.938 1.591-12.569 2.432a73.227 73.227 0 0 1-8.17 1.6 15.08 15.08 0 0 1-5.484-.249 26.065 26.065 0 0 1-1.344 6.791 14.74 14.74 0 0 1-1.948 3.667 6.727 6.727 0 0 0-.467.725l-.016.049a5.469 5.469 0 0 0 2.459 2.3c.381.156.8.319 1.271.487a60.82 60.82 0 0 0 8.089 2.184c.451.078.889.151 1.31.222 1.235.207 2.3.386 3.119.578l.118.027a135.388 135.388 0 0 0 15.159 1.498v-.003Zm-35.443-15.062a8.827 8.827 0 0 1 3.857 2.258c.367-1.241.59-2.52.664-3.812a16.646 16.646 0 0 0-.536-5.3 11.812 11.812 0 0 1-.5-.671 31.307 31.307 0 0 1-2.542-4.684c-.3-.633-.608-1.286-.918-1.9-.885-1.74-1.72-3.407-2.506-5a102.524 102.524 0 0 1-11.5-29.07c-.3-1.312-.578-2.658-.849-3.958-.18-.868-.362-1.745-.552-2.622a73.493 73.493 0 0 0-.757-2.1 3.972 3.972 0 0 1-.212-1.988 56.146 56.146 0 0 0-.571-2 33.45 33.45 0 0 0-2.148-5.395c-.266 6.151-.12 12.313.436 18.444l3.131 45.64a23.5 23.5 0 0 1 10.222 1.276l.264.084c1.699.062 3.383.331 5.017.8v-.002Zm8.289-5.777c2.736 1.112 5.912.347 8.983-.392l.166-.04a159.268 159.268 0 0 1 37.3-4.469c.348.001.693-.07 1.012-.209.319-.14.605-.345.841-.601a2.514 2.514 0 0 0 .647-1.916 89.437 89.437 0 0 0-3.389-16.755c-1.619-5.549-3.636-11.146-5.586-16.559-2.4-6.659-4.882-13.545-6.638-20.388a85.949 85.949 0 0 1-2.041-10.365 60.88 60.88 0 0 1-.491-10.557v-.011a.302.302 0 0 0-.15-.293.372.372 0 0 0-.374-.012.378.378 0 0 0-.079.059c-3.777 3.5-7.609 6.731-11.389 9.594a117.497 117.497 0 0 1-12.09 8.068 98.458 98.458 0 0 1-4.312 2.35c-.375.225-.751.446-1.13.665a55.063 55.063 0 0 1-9.928 4.6 36.615 36.615 0 0 1-7.671 1.743c-1.6.377-3.2.697-4.8.959a2.048 2.048 0 0 0-1.627 1.412c.311 1.2.59 2.416.853 3.628a68.85 68.85 0 0 1 2.1 7.715c1.227 5.413 2.491 11 10.646 27.551.349.595.704 1.186 1.065 1.773.285.463.58.934.866 1.39a37.192 37.192 0 0 1 4.592 9.1 6.848 6.848 0 0 0 2.621 1.962l.003-.002Zm-23.394-55.409a3.83 3.83 0 0 1 .389-.307 4.366 4.366 0 0 1-.552-.218l.163.527v-.002Zm.412-2.916.34.373-.1.364c.331.14.678.237 1.033.289.76.126 1.53.18 2.3.161a30.31 30.31 0 0 0 2.769-.175 75.482 75.482 0 0 0 9.148-2.8 86.77 86.77 0 0 0 9-4c3.977-2.387 7.756-5.112 11.306-7.716 2.9-2.12 5.833-4.282 8.672-6.374 1.49-1.1 3.031-2.233 4.549-3.349a3.537 3.537 0 0 0 1.233-1.246c.139-.47.168-.965.084-1.448v-.005a22.083 22.083 0 0 0-2.393-8.471 21.436 21.436 0 0 0-5.778-6.609 2.864 2.864 0 0 0-1.156-.658 1.891 1.891 0 0 0-1.154.382l-.269.158-.292.171c-.212.123-.39.217-.555.3-1.988.95-4.267 2.169-6.967 3.728-6.69 3.863-14.882 9.21-22.8 14.38-5.643 3.684-11.471 7.488-16.811 10.795a46.867 46.867 0 0 0 2.16 4.077v-.027l1.4 2.094c.321.479.624.966.909 1.462a46.866 46.866 0 0 0 3.373 4.146l-.001-.002Zm-62.301-75.243c15.083 20.42 32.462 41.128 49.275 61.162.394.586.95 1.045 1.6 1.321h.006a2.52 2.52 0 0 0 1.808-.483c.229-.131.452-.275.66-.41l47.909-31.471a4.352 4.352 0 0 0 1.823-2.509 4.298 4.298 0 0 0-.31-3.074c-3.662-7.232-8.435-14.06-13.049-20.661-2.379-3.4-4.837-6.921-7.124-10.463a171.787 171.787 0 0 1-20.09-43.3l-62.508 49.888Zm-99.558 178.167a18.476 18.476 0 0 1-7.5-1.994 14.969 14.969 0 0 1-5.119-4.479 21.512 21.512 0 0 1-3.339-7.592 20.712 20.712 0 0 1 1.453-13.1 41.712 41.712 0 0 1 7.427-11.316 53.27 53.27 0 0 1 7.986-7.19 92.608 92.608 0 0 1 9.007-5.836 183.655 183.655 0 0 1 4.1-2.29 272.43 272.43 0 0 1 47.2-20.132l.688-.22.379.616.267.437a751.222 751.222 0 0 1 5.438-11.371l-65.062 21.333-.4-.388a18.053 18.053 0 0 1-4.955-9.223 22.931 22.931 0 0 1 .248-10.571 30.65 30.65 0 0 1 4.379-9.428 48.126 48.126 0 0 1 6.8-7.864 76.055 76.055 0 0 1 14.5-10.691 125.556 125.556 0 0 1 19.08-8.743c6.633-2.468 13.625-4.651 20.388-6.764 9.011-2.815 18.323-5.723 27.148-9.4.53-4.244 1.138-8.437 1.843-12.721 1.347-8.191 2.936-16.115 4.873-25.624l.425-2.082 1.233 1.73c8.882 12.458 18.252 23.6 26.518 33.435 5.245 6.24 10.229 12.167 14.675 17.911l.056-.521 1.393 2.412.18.238-.04.365c-.868 8.068-1.712 13.4-3.161 21.615l-.127.719-.729.043-.16.01c-5.7 11.413-11.06 21.548-16.368 30.975-6.386 11.337-12.6 21.482-19.005 31.013l-.475.707-.743-.417a81.959 81.959 0 0 0-1.15-.633 44.072 44.072 0 0 1-5.155 3.484 44.533 44.533 0 0 1-10.659 4.43 42.35 42.35 0 0 1-9.081 1.431c.129.156.255.314.378.474l.693.9-1.028.491c-15.479 7.412-34.194 14.3-52.3 20.971l-.01.006-.074.027-.689.256a80.08 80.08 0 0 1-13.5 4.008 35.51 35.51 0 0 1-6.232.6 22.928 22.928 0 0 1-1.694-.047Zm14.9-52.17a179.59 179.59 0 0 0-4.057 2.267 90.826 90.826 0 0 0-8.828 5.718 51.55 51.55 0 0 0-7.714 6.942 39.87 39.87 0 0 0-7.1 10.8 18.92 18.92 0 0 0-1.361 11.94 19.708 19.708 0 0 0 3.039 6.945 13.134 13.134 0 0 0 4.491 3.932 16.644 16.644 0 0 0 6.752 1.783 31.178 31.178 0 0 0 7.481-.518c4.5-.919 8.91-2.232 13.18-3.922l.617-.229.012-.006.074-.027c17.673-6.507 35.934-13.23 51.148-20.423-.2-.225-.4-.448-.611-.671l-.481-.007-.156-.272a9.761 9.761 0 0 1-2.734-3.19 20 20 0 0 1-.9-1.722 9.72 9.72 0 0 1-.63-1.492c-.193-.5-.371-1.016-.533-1.537a30.028 30.028 0 0 1-1.6-10.585c.067-1.562.242-3.119.523-4.657.157-1.868.539-3.71 1.138-5.486.063-.183.13-.365.193-.543.063-.178.128-.356.189-.531l.174-.638.173-.627c.05-.278.065-.561.044-.842a77.108 77.108 0 0 1-5.359-10.533c-.319-.552-.643-1.099-.97-1.642a270.677 270.677 0 0 0-46.195 19.776l.001-.003Zm57.6 22.357.316.328a40.237 40.237 0 0 0 10.237-1.409 42.627 42.627 0 0 0 14.48-7.065c-2.268-1.022-4.633-1.9-6.933-2.744a82.713 82.713 0 0 1-9.215-3.83 32.352 32.352 0 0 1-7.445-5.087 41.684 41.684 0 0 1-5.466-6.295c-.5 1.924-.87 3.574-1.134 5.055a31.347 31.347 0 0 0-.1 3.561c.136 3.05.454 6.088.952 9.1.13 1.104.354 2.196.669 3.262.169.437.348.86.534 1.266a17.855 17.855 0 0 0 3.105 3.858Zm27.193-9.174 1.011.495c6.192-9.264 12.218-19.124 18.407-30.11 5.084-9.027 10.214-18.711 15.652-29.549-3.301.702-6.676 1-10.049.886a44.753 44.753 0 0 1-22.836-7.176 41.11 41.11 0 0 1-9.067-7.982 18.785 18.785 0 0 1-2.837-4.253 12.38 12.38 0 0 1-.887-2.777 7.972 7.972 0 0 1-.307 2.288 10.618 10.618 0 0 1-2.293 3.671l-.057.068a87.683 87.683 0 0 0-4.261 5.594c-6.068 11.016-12.094 22.982-18.473 36.657l.025.06c1.471 2.548 2.855 5.163 4.2 7.711l.245.462a8.693 8.693 0 0 1 1.023 2.538 94.034 94.034 0 0 0 2.471 3.838 29.63 29.63 0 0 0 6.652 7.51 34.93 34.93 0 0 0 7.376 3.774l.137.057c3.943 1.622 8.323 3.424 12.836 5.752.348.157.691.319 1.032.486Zm-36.18-86.051c-6.739 2.1-13.708 4.281-20.294 6.731a123.729 123.729 0 0 0-18.8 8.612 74.2 74.2 0 0 0-14.153 10.428 46.235 46.235 0 0 0-6.535 7.557 28.823 28.823 0 0 0-4.122 8.857 21.557 21.557 0 0 0-.679 4.853 20.527 20.527 0 0 0 .448 4.863 16.38 16.38 0 0 0 4.046 7.895l64.562-21.169a156.23 156.23 0 0 1 12.552-22.283 446.659 446.659 0 0 1 6.7-11.75c0-.146-.006-.293-.008-.437-.06-4.45.696-8.874 2.229-13.052-8.496 3.445-17.355 6.212-25.945 8.895h-.001Zm31.554 8.347a60.59 60.59 0 0 0 6.329 4.764l11.357 7.776a29.545 29.545 0 0 0 3.143 1.982c5.227 2.743 11.507 2.308 18.156 1.846.772-.054 1.563-.109 2.357-.159 1.345-7.651 2.154-12.83 2.978-20.409-4.711-6.189-10.1-12.6-15.8-19.383-7.906-9.4-16.821-20.007-25.372-31.83-1.744 8.583-3.2 15.925-4.439 23.482-.642 3.9-1.2 7.731-1.7 11.592l.833-.352-.934 2.126-.169.392c-.33 2.721-.628 5.468-.9 8.278l.283-.471-.427 4.126c-.032.309-.05.619-.055.928a19.97 19.97 0 0 0 4.361 5.312h-.001Zm-3.41-.75a17.068 17.068 0 0 0 2.569 3.829 39.355 39.355 0 0 0 8.661 7.623 42.637 42.637 0 0 0 11.999 5.376 33.261 33.261 0 0 1-3.179-2.014l-11.354-7.774a62.05 62.05 0 0 1-6.519-4.914 26.884 26.884 0 0 1-2.223-2.23l.046.104Zm-136.712 1.948a23.278 23.278 0 0 1-12.118-4.743 25.024 25.024 0 0 1-7.971-11.686 41.575 41.575 0 0 1-2.106-14.253c.216-5.234.784-10.448 1.7-15.606.619-4 1.26-8.144 1.54-12.231.555-8.96-.37-17.95-2.74-26.609l-.27-1.008c-.573-2.138-1.167-4.35-1.516-6.344a14.755 14.755 0 0 1-.259-4.055l-2.518.077 2.911-1.671.094-.268.394-.012 1.969-1.131-.382 1.083 2.827-.085a50.191 50.191 0 0 1-4.134-7.846 18.351 18.351 0 0 1-1.355-9.837c.075-.458.173-.91.292-1.356a5.626 5.626 0 0 1-1.625-.741 6.667 6.667 0 0 1-1.857-1.885 9.445 9.445 0 0 1-1.44-3.951 10.04 10.04 0 0 1 .31-4.249 25.97 25.97 0 0 1 4-7.227c.834-1.187 1.7-2.416 2.408-3.668 2.1-3.7 3.1-7.962 4.064-12.081a140.97 140.97 0 0 0 2.867-14.6 45.429 45.429 0 0 0-.246-14.468 70.607 70.607 0 0 0-4.133-12.435c-1.905-4.732-3.876-9.625-4.558-14.8a29.004 29.004 0 0 1 .3-9.263 32.34 32.34 0 0 1 3.044-8.74 33.594 33.594 0 0 1 5.35-7.585 31.584 31.584 0 0 1 7.231-5.764 28.668 28.668 0 0 1 6.439-2.743c1.4-.4 2.863-.718 4.279-1.024a29.39 29.39 0 0 0 8.387-2.7 11 11 0 0 0 2.3-1.748 20.081 20.081 0 0 0 2.8-3.837 29.35 29.35 0 0 1 2.169-3.19 18.745 18.745 0 0 1 5.227-4.436 23.022 23.022 0 0 1 7.129-2.606 29.568 29.568 0 0 1 7.806-.43 32.362 32.362 0 0 1 14.816 4.8c5.152 3.291 7.891 6.876 11.063 11.026 1.25 1.638 2.544 3.331 4.081 5.126a63.77 63.77 0 0 1 11.419 22.132 38.88 38.88 0 0 1 1.131 7.391c.13 2.427.048 4.86-.244 7.273a56.155 56.155 0 0 1-3.754 14.134c-3.653 9.2-9.238 18.033-14.64 26.574l-.675 1.067a193.277 193.277 0 0 0-22.061 48.851 22.949 22.949 0 0 1-2.318 5.476 12.935 12.935 0 0 1-4.552 4.629c-.741.428-1.529.769-2.348 1.016l-1.179.358a7.88 7.88 0 0 1-2.236 1.915l-.1.056 7.479-.226h.047a3.557 3.557 0 0 1 2.037.4 3.7 3.7 0 0 1 1.427 2.308c4.077 14.6 5.95 28.272 5.566 40.632a84.686 84.686 0 0 1-2.9 19.952 68.765 68.765 0 0 1-3.365 9.439 63.194 63.194 0 0 1-4.83 8.906 51.423 51.423 0 0 1-6.538 8.134 39.53 39.53 0 0 1-8.21 6.4 32.98 32.98 0 0 1-4.7 2.245 28.871 28.871 0 0 1-10.207 1.877 27.318 27.318 0 0 1-2.817-.139h-.001Zm-21.87-96.592c-.378 2.275.715 6.347 1.688 9.977.092.339.182.677.271 1.013a83.49 83.49 0 0 1 2.8 27.211c-.285 4.163-.932 8.343-1.557 12.386a115.587 115.587 0 0 0-1.678 15.358 39.728 39.728 0 0 0 2 13.611 23.207 23.207 0 0 0 7.373 10.845 21.45 21.45 0 0 0 11.161 4.354c2.056.208 4.13.173 6.178-.105a26.987 26.987 0 0 0 6-1.517 31.068 31.068 0 0 0 4.433-2.119 37.7 37.7 0 0 0 7.825-6.1 49.628 49.628 0 0 0 6.3-7.842 61.181 61.181 0 0 0 4.687-8.643 66.761 66.761 0 0 0 3.274-9.185 82.737 82.737 0 0 0 2.836-19.515c.378-12.174-1.471-25.658-5.5-40.077a2.213 2.213 0 0 0-.618-1.234 2.182 2.182 0 0 0-1.031-.122l-17.221.52c-4.924.593-10.185.949-15.7 1.062-4.346.088-8.88.032-13.75-.173l-9.771.295Zm16.553-32.048a20.592 20.592 0 0 0-9.266 2.7 16.899 16.899 0 0 0-4.964 4.25 12.7 12.7 0 0 0-2.562 5.757 16.55 16.55 0 0 0 1.249 8.86 51.244 51.244 0 0 0 4.333 8.111c1.509.087 2.986.162 4.43.223l29.31-.884c1.42-.172 2.81-.364 4.171-.575h.009a21.004 21.004 0 0 0 3-.616l3.15-1.815a6.681 6.681 0 0 0 1.4-2.241l-2.4-10.624a18.555 18.555 0 0 0-2.48-2.316c-.904-.634-1.797-1.25-2.678-1.847-1.4-.861-2.869-1.638-4.326-2.381a81.15 81.15 0 0 0-10.958-4.793 32.596 32.596 0 0 0-10.309-1.834 26.94 26.94 0 0 0-1.108.025h-.001Zm36.264 24.278a9.143 9.143 0 0 0 1-.5 11.12 11.12 0 0 0 3.894-3.984 21.1 21.1 0 0 0 2.126-5.039 195.154 195.154 0 0 1 22.272-49.319l.675-1.067c5.357-8.47 10.9-17.229 14.486-26.269a54.313 54.313 0 0 0 3.636-13.671c.28-2.306.358-4.632.234-6.952a36.985 36.985 0 0 0-1.078-7.04 55.722 55.722 0 0 0-4.469-11.241 54.639 54.639 0 0 0-6.563-10.143c-1.57-1.835-2.879-3.549-4.145-5.206-3.065-4.011-5.711-7.475-10.589-10.59a30.486 30.486 0 0 0-13.956-4.519 27.746 27.746 0 0 0-7.317.4 21.139 21.139 0 0 0-6.558 2.393 16.86 16.86 0 0 0-4.717 4 27.634 27.634 0 0 0-2.029 2.992 21.786 21.786 0 0 1-3.065 4.176c-.8.795-1.702 1.48-2.682 2.038a30.688 30.688 0 0 1-8.919 2.9c-1.386.3-2.82.611-4.162 1a26.857 26.857 0 0 0-6.023 2.567 29.699 29.699 0 0 0-6.807 5.428 31.765 31.765 0 0 0-5.053 7.157 30.566 30.566 0 0 0-2.871 8.24 27.207 27.207 0 0 0-.284 8.673c.652 4.946 2.578 9.729 4.441 14.354a71.877 71.877 0 0 1 4.233 12.767 47.229 47.229 0 0 1 .266 15.054 142.465 142.465 0 0 1-2.9 14.793c-.994 4.246-2.021 8.636-4.255 12.571-.754 1.331-1.644 2.6-2.5 3.82a24.235 24.235 0 0 0-3.747 6.7 8.258 8.258 0 0 0 .9 6.638 4.389 4.389 0 0 0 2.425 1.867 18.187 18.187 0 0 1 7.663-8.212 25.228 25.228 0 0 1 8.362-2.94 27.33 27.33 0 0 1 8.92-.02 42.903 42.903 0 0 1 13.7 5.059c2.327 1.285 4.578 2.709 6.868 4.256a30.24 30.24 0 0 1 2.842 1.96c.837.587 1.686 1.187 2.547 1.8l.287.2.205.907c.481.577.92 1.188 1.315 1.827a12.465 12.465 0 0 1 1.741 7.625 10.68 10.68 0 0 1-.433 2.139l.084.411Zm107.577 37.139c-2.256-.618-6.089-3.347-11.716-8.341-4.474-3.971-10.113-9.428-16.311-15.783-10.77-11.047-21.295-22.82-22.356-24.709a15.296 15.296 0 0 0-4.385-4.306l-.084-.063c-6.854-5.134-12.168-10.746-17.795-16.688-2.955-3.12-6.009-6.347-9.318-9.51a1.087 1.087 0 0 1-.292-.502 1.088 1.088 0 0 1 .005-.58c.052-.212.128-.416.226-.611a15.28 15.28 0 0 1 .862-1.487c.751-1.183 1.866-2.8 3.278-4.84 2.885-4.178 6.836-9.9 10.818-16.479a177.107 177.107 0 0 0 5.836-10.382 116.832 116.832 0 0 0 5.02-11.023l.769-1.973.923 1.9a29.314 29.314 0 0 1 2.662 8.992c.36 3.001.545 6.02.553 9.042.065 2.825.132 5.746.463 8.862a51.45 51.45 0 0 0 2.033 9.978c.91 2.926 2.147 6.243 4.431 8.663 2.268 2.386 5.466 3.8 8.3 4.862 2.922 1.109 6.051 2.123 9.077 3.1 9.71 3.15 19.7 6.389 26.2 13.529l2.693-1.554c-10.291-7.114-15.879-10.611-25.206-15.259a31.174 31.174 0 0 0-7.443-2.152 32.095 32.095 0 0 1-8-2.359c-2.189-1.111-4.243-3.526-6.107-7.177a44.829 44.829 0 0 1-3.324-8.926l-.02-.078-.005-.079c-.206-2.767-.4-5.493-.585-8.13-1.3-18.431-2.423-34.349-7.272-50.216a89.913 89.913 0 0 0-7.538-17.478 98.87 98.87 0 0 0-11.392-16.319 83.712 83.712 0 0 0-14.384-13.326 59.702 59.702 0 0 0-16.491-8.537l-.366-.112-.175-.341c-2.8-5.484-5.046-10.216-6.853-14.468a113.684 113.684 0 0 1-4.469-12.271 103.281 103.281 0 0 1-3.909-23.967 8.919 8.919 0 0 1 1.245-5.452 30.443 30.443 0 0 1 4-3.963 64.728 64.728 0 0 1 9.931-7.054 59.426 59.426 0 0 1 16.878-6.64 53.566 53.566 0 0 1 22.034-.24 84.953 84.953 0 0 1 13.391 3.763 72.069 72.069 0 0 1 11.048 5.233 66.119 66.119 0 0 1 8.934 6.268 65.297 65.297 0 0 1 7.055 6.86 68.811 68.811 0 0 1 5.422 7.007 75.251 75.251 0 0 1 4.034 6.712 104.728 104.728 0 0 1 4.891 10.777c.463 1.153.863 2.148 1.193 2.857 3.5 7.489 6.58 14.684 9.427 22a344.75 344.75 0 0 1 7 19.739c4.03 12.564 7.022 24.288 9.915 35.626 2.061 8.078 4.193 16.431 6.676 24.986 1.9 6.535 4.044 13.941 5.417 21.39a88.712 88.712 0 0 1 1.372 10.92 62.95 62.95 0 0 1-.268 11.016 40.89 40.89 0 0 1-5.013 15.912 30.215 30.215 0 0 1-11.123 11.2 33.098 33.098 0 0 1-7.956 3.265l-4.171 1.123a25.766 25.766 0 0 1 2.817 3.961 48.375 48.375 0 0 1 4.21 11.322 73.951 73.951 0 0 0 2.256 7.137 19.6 19.6 0 0 0 8.9 10.661c2.395 1.582 4.873 3.218 6.661 6.491l.347.636-.535.489a131.07 131.07 0 0 1-13.45 10.422c-3.078 2.17-5.985 4.219-8.574 6.384-.08.066-.165.126-.255.178a2.117 2.117 0 0 1-1.073.265 3.763 3.763 0 0 1-.989-.153Zm-59.588-113.435a174.862 174.862 0 0 1-5.9 10.492c-4.01 6.628-7.979 12.376-10.878 16.573-1.181 1.711-2.2 3.189-2.925 4.3-.594.909-.885 1.414-1.028 1.694 3.2 3.081 6.154 6.2 9.013 9.22 5.571 5.883 10.833 11.441 17.563 16.482l.085.064a16.669 16.669 0 0 1 4.885 4.876 114.823 114.823 0 0 0 7.934 9.287 564.893 564.893 0 0 0 16.167 17.108c6.613 6.705 12.419 12.2 16.79 15.88a52.43 52.43 0 0 0 6.217 4.658c2.141 1.289 2.756 1.1 2.792 1.085 2.646-2.211 5.582-4.281 8.689-6.472a134.187 134.187 0 0 0 12.716-9.776c-1.533-2.463-3.558-3.8-5.693-5.209a24.163 24.163 0 0 1-5.785-4.828c-3.337-4.028-4.757-9.105-6.129-14.016a47.14 47.14 0 0 0-4.031-10.9 23.849 23.849 0 0 0-3.213-4.346l-.643.173.523-.3a26.589 26.589 0 0 0-1.852-1.782 34.922 34.922 0 0 0-6.825-4.586c-5.015-2.639-10.832-4.525-16.458-6.35-3.047-.988-6.2-2.011-9.16-3.134-3.026-1.139-6.46-2.662-8.986-5.321-2.542-2.695-3.878-6.255-4.851-9.383a53.304 53.304 0 0 1-2.106-10.332c-.338-3.193-.407-6.152-.472-9.015a76.398 76.398 0 0 0-.535-8.829 28.628 28.628 0 0 0-1.629-6.455 125.169 125.169 0 0 1-4.275 9.142ZM227.803 346.07a57.602 57.602 0 0 0-16.353 6.436 62.991 62.991 0 0 0-9.591 6.8 32.69 32.69 0 0 0-3.721 3.637 7.116 7.116 0 0 0-.938 4.312 101.509 101.509 0 0 0 3.837 23.558 112.052 112.052 0 0 0 4.4 12.073c1.752 4.124 3.92 8.71 6.625 14.01a61.83 61.83 0 0 1 16.638 8.678 85.623 85.623 0 0 1 14.7 13.62 98.13 98.13 0 0 1 19.3 34.463c4.91 16.069 6.04 32.083 7.348 50.627.185 2.609.374 5.306.579 8.042a42.84 42.84 0 0 0 3.157 8.461c1.659 3.249 3.491 5.452 5.3 6.37a30.8 30.8 0 0 0 7.537 2.2 32.431 32.431 0 0 1 7.9 2.308c4.966 2.474 9.008 4.7 13.1 7.226 4.036 2.486 8.2 5.3 13.177 8.754a31.197 31.197 0 0 0 7.087-2.964 28.38 28.38 0 0 0 10.447-10.521 39.056 39.056 0 0 0 4.776-15.2c.399-3.551.486-7.129.259-10.695a86.804 86.804 0 0 0-1.344-10.694c-1.357-7.358-3.492-14.718-5.375-21.21-2.492-8.583-4.627-16.952-6.692-25.043-2.886-11.312-5.871-23.009-9.884-35.519a338.78 338.78 0 0 0-6.959-19.633 359.693 359.693 0 0 0-9.38-21.886c-.352-.755-.76-1.772-1.233-2.95a103.36 103.36 0 0 0-4.807-10.6 73.538 73.538 0 0 0-3.934-6.547 66.645 66.645 0 0 0-5.276-6.817 63.465 63.465 0 0 0-6.857-6.664 64.295 64.295 0 0 0-8.683-6.092 70.177 70.177 0 0 0-10.763-5.1 83.126 83.126 0 0 0-13.1-3.679 52.248 52.248 0 0 0-10.112-.993 51.703 51.703 0 0 0-11.165 1.232Zm116.14 263.388a.982.982 0 0 1-.6-.466c-1.308-2.336-3.635-4.054-6.1-5.872a27.759 27.759 0 0 1-6.747-6.262c-2.407-3.481-3.8-7.836-5.152-12.048a48.858 48.858 0 0 0-3.343-8.643l-.478-.854.88-.428c1.5-.728 2.952-1.5 4.324-2.29a52.131 52.131 0 0 0 11.428-8.756 41.427 41.427 0 0 0 4.667-5.758 39.292 39.292 0 0 0 3.647-6.824 37.328 37.328 0 0 0 2.676-11.417 42.663 42.663 0 0 0-.775-11.781c-2.4-11.7-5.09-23.508-7.986-35.1a862.416 862.416 0 0 0-9.456-34.736 858.299 858.299 0 0 0-10.909-34.31 850.932 850.932 0 0 0-12.348-33.826l-.053-.138a127.466 127.466 0 0 0-5.845-13.231 89.904 89.904 0 0 0-4.887-8.286 76.909 76.909 0 0 0-6.536-8.483 67.992 67.992 0 0 0-8.44-8 63.808 63.808 0 0 0-10.6-6.83 66.325 66.325 0 0 0-13.036-4.989 78.115 78.115 0 0 0-15.756-2.462 65.129 65.129 0 0 0-19.137 1.8 68.004 68.004 0 0 0-17.874 7.171 66.133 66.133 0 0 0-9.835 6.933 28.063 28.063 0 0 0-3.9 3.921 12.416 12.416 0 0 0-2.4 4.616c-.723 2.853-.152 5.89.55 9.008a196.123 196.123 0 0 0 17.619 47.725l.383.727-.679.465a19.296 19.296 0 0 0-5.089 5.422 68.055 68.055 0 0 0-3.869 7.009 64.267 64.267 0 0 1-4.148 7.425 18.41 18.41 0 0 1-5.9 5.756 14.58 14.58 0 0 1-1.762.863 26.21 26.21 0 0 1-6.43 1.445 38.685 38.685 0 0 0-4.043.7 20.459 20.459 0 0 0-5.294 2.164 33.62 33.62 0 0 0-10.125 9.658 67.554 67.554 0 0 0-5.661 9.519 98.949 98.949 0 0 0-4.16 9.788l-.744-.273-.826.565a47.969 47.969 0 0 1-5.37-8.377 49.93 49.93 0 0 1-5.215-19.1 47.863 47.863 0 0 1 .371-9.944c.041-.292.085-.59.129-.878.317-2.113.615-4.109 0-5.928a12.537 12.537 0 0 0-3.013-4.246c-.585-.627-1.19-1.276-1.734-1.966a18.707 18.707 0 0 1-3.83-10.273 31.452 31.452 0 0 1 1.205-11.071 88.638 88.638 0 0 1 4.038-10.658 97.331 97.331 0 0 0 3.654-9.4c2.993-9.59 3.139-20.239.446-32.557-2.46-11.253-6.985-22.478-11.034-32.117l-.546-1.3 1.411.02c2.084 0 4.128-.569 5.912-1.646a19.776 19.776 0 0 0 4.426-3.606 33.34 33.34 0 0 0 3.629-4.681l.933-1.439c3.1-4.787 6.3-9.738 10.879-13.39a24.79 24.79 0 0 1 3.029-2.048 37.72 37.72 0 0 1 9.255-3.676 54.93 54.93 0 0 1 10.224-1.644 51.435 51.435 0 0 1 9.666.221c2.628.272 5.198.946 7.621 2 1.439.682 3.258.675 5.561-.02a38.052 38.052 0 0 0 7.732-3.649c1.908-1.1 3.916-2.344 6.042-3.659 2.349-1.453 4.778-2.956 7.327-4.426a76.98 76.98 0 0 1 15.506-7.141 61.447 61.447 0 0 1 18.591-2.845 58.263 58.263 0 0 1 19.2 3.342l.375.133.162.364a4859.232 4859.232 0 0 1 54.68 128.186 4832.745 4832.745 0 0 1 50.953 129.709 134.987 134.987 0 0 1 5.323 16.525 55.12 55.12 0 0 1 1.442 18.122l-.021.21-.109.18c-3.5 5.776-7.342 11.785-12.35 16.2-2.143 1.89-9.724 8.558-17.319 15-7.2 6.109-11.641 9.663-13.2 10.562a1.974 1.974 0 0 1-.956.332c-.093 0-.186-.013-.276-.038ZM242.625 335.827c20.053 1.128 36.575 8.83 49.109 22.892a78.855 78.855 0 0 1 6.693 8.688 91.4 91.4 0 0 1 4.989 8.458 128.928 128.928 0 0 1 5.928 13.414l.054.138a860.649 860.649 0 0 1 12.372 33.9 858.962 858.962 0 0 1 20.409 69.196 853.274 853.274 0 0 1 8 35.178 44.488 44.488 0 0 1 .806 12.292 39.157 39.157 0 0 1-2.81 11.981 41.134 41.134 0 0 1-3.819 7.146 43.334 43.334 0 0 1-4.875 6.016 53.995 53.995 0 0 1-11.831 9.071 70.509 70.509 0 0 1-3.583 1.929 57.932 57.932 0 0 1 3.035 8.122c1.309 4.083 2.662 8.306 4.911 11.561a26.37 26.37 0 0 0 6.325 5.827c2.394 1.767 4.667 3.444 6.189 5.756 3.747-2.406 19.789-16.227 29.936-25.177 4.761-4.2 8.483-9.992 11.883-15.591a53.475 53.475 0 0 0-1.422-17.312 133.274 133.274 0 0 0-5.254-16.3 4843.793 4843.793 0 0 0-50.933-129.659 4848.754 4848.754 0 0 0-54.5-127.771 56.386 56.386 0 0 0-18.218-3.106 59.652 59.652 0 0 0-18.032 2.761 75.229 75.229 0 0 0-15.126 6.982c-2.524 1.457-4.941 2.952-7.278 4.4-2.138 1.323-4.158 2.572-6.089 3.687a39.652 39.652 0 0 1-8.123 3.813c-2.762.834-5.015.808-6.887-.079-3.642-1.726-9.762-2.49-16.372-2.044a52.915 52.915 0 0 0-9.878 1.588 35.895 35.895 0 0 0-8.8 3.489 22.844 22.844 0 0 0-2.8 1.894 33.803 33.803 0 0 0-5.69 5.959c-1.7 2.218-3.271 4.644-4.789 6.99l-.936 1.443a35.222 35.222 0 0 1-3.832 4.94 21.61 21.61 0 0 1-4.848 3.939 13.664 13.664 0 0 1-5.485 1.834c3.945 9.436 8.234 20.285 10.624 31.216 2.763 12.64 2.6 23.6-.488 33.5a98.293 98.293 0 0 1-3.72 9.58 87.473 87.473 0 0 0-3.959 10.434 29.615 29.615 0 0 0-1.141 10.411c.193 3.367 1.39 6.6 3.437 9.281.5.63 1.05 1.223 1.635 1.851a14.097 14.097 0 0 1 3.412 4.913c.756 2.245.41 4.558.076 6.8-.042.283-.086.577-.127.864a45.918 45.918 0 0 0-.356 9.562 48.084 48.084 0 0 0 5.022 18.391 46.272 46.272 0 0 0 4.138 6.724c1.148-3 2.375-5.827 3.655-8.415a69.348 69.348 0 0 1 5.819-9.782 35.446 35.446 0 0 1 10.7-10.176 22.256 22.256 0 0 1 5.773-2.358 40.25 40.25 0 0 1 4.236-.738 24.483 24.483 0 0 0 5.982-1.326 12.479 12.479 0 0 0 1.536-.753 16.384 16.384 0 0 0 5.3-5.2 61.88 61.88 0 0 0 4.021-7.21c2.352-4.681 4.779-9.513 8.9-12.644a198.045 198.045 0 0 1-17.414-47.467 38.462 38.462 0 0 1-.846-4.848 14.736 14.736 0 0 1 .308-5.023 14.199 14.199 0 0 1 2.742-5.305 29.947 29.947 0 0 1 4.152-4.182 68.04 68.04 0 0 1 10.111-7.128 69.864 69.864 0 0 1 18.36-7.366 67.514 67.514 0 0 1 16.013-1.948 56.81 56.81 0 0 1 3.67.097Zm60.52 267.169a13.543 13.543 0 0 1-7.382-3.295 12.661 12.661 0 0 1-2.714-3.311 11.143 11.143 0 0 1-1.379-4.227 10.645 10.645 0 0 1 1.244-6.317 11.66 11.66 0 0 1 4.429-4.536 11.363 11.363 0 0 1 4.7-1.493c3.133-.31 6.275.498 8.871 2.279a12.605 12.605 0 0 1 2.957 2.914 11.402 11.402 0 0 1 1.8 3.749 9.694 9.694 0 0 1 .237 3.776 11.164 11.164 0 0 1-1.106 3.554 13.076 13.076 0 0 1-5.1 5.4 11.147 11.147 0 0 1-5.573 1.553 9.812 9.812 0 0 1-.985-.047l.001.001Zm-.942-21.338a9.499 9.499 0 0 0-3.935 1.252 9.802 9.802 0 0 0-3.728 3.816 8.807 8.807 0 0 0-1.033 5.226 9.303 9.303 0 0 0 1.153 3.532 10.845 10.845 0 0 0 2.32 2.828 11.656 11.656 0 0 0 6.347 2.845 9.112 9.112 0 0 0 5.45-1.266 11.203 11.203 0 0 0 4.375-4.628 8.46 8.46 0 0 0 .737-6.026 9.541 9.541 0 0 0-1.515-3.141 10.744 10.744 0 0 0-2.528-2.489 11.307 11.307 0 0 0-6.542-2 13.2 13.2 0 0 0-1.102.05l.001.001Zm5.145-44.451a16.663 16.663 0 0 1-6.034-1.714 13.112 13.112 0 0 1-3.59-3.077 24.53 24.53 0 0 1-3.6-5.585 21.115 21.115 0 0 1-2-7.4 17.572 17.572 0 0 1 1.432-8.408l.122-.28.016-.009a15.936 15.936 0 0 1 2.785-4.135 17.635 17.635 0 0 1 4.133-3.288 17.93 17.93 0 0 1 4.479-1.837 16.752 16.752 0 0 1 4.817-.535c2.605.068 5.146.821 7.367 2.183a16.49 16.49 0 0 1 4.675 4.559 21.212 21.212 0 0 1 2.891 6.058c.654 2.164.971 4.415.94 6.675a17.915 17.915 0 0 1-1.246 6.441 12.845 12.845 0 0 1-3.236 4.446 25.217 25.217 0 0 1-4.646 3.383 29.863 29.863 0 0 1-3.1 1.562 12.534 12.534 0 0 1-5.014 1.006c-.392.002-.789-.013-1.192-.046l.001.001Zm-1.79-33.943c-1.408.366-2.76.921-4.019 1.649a15.015 15.015 0 0 0-6.277 6.846l-.122.28h-.006a17.145 17.145 0 0 0 .662 14.006 22.62 22.62 0 0 0 3.326 5.159 11.482 11.482 0 0 0 3.018 2.632 14.803 14.803 0 0 0 5.357 1.526 11.036 11.036 0 0 0 5.323-.812 28.2 28.2 0 0 0 2.911-1.466 23.736 23.736 0 0 0 4.307-3.131 11.023 11.023 0 0 0 2.786-3.789 18.366 18.366 0 0 0 .25-11.9 19.365 19.365 0 0 0-2.637-5.531 14.659 14.659 0 0 0-4.145-4.055 12.99 12.99 0 0 0-6.449-1.9c-.177-.007-.354-.01-.531-.01a14.968 14.968 0 0 0-3.755.496h.001Zm-35.915-63.852a36.294 36.294 0 0 1-6.673-2.12 42.359 42.359 0 0 1-6.483-3.471 47.883 47.883 0 0 1-6.107-4.733 55.058 55.058 0 0 1-16.351-28.322 47.806 47.806 0 0 1-1.047-7.655 42.262 42.262 0 0 1 .236-7.349c.278-2.323.78-4.614 1.5-6.84a30.712 30.712 0 0 1 2.751-6.12 25.354 25.354 0 0 1 9.184-9.185c.467-.267.938-.519 1.415-.758.411-.276.831-.539 1.262-.788a22.034 22.034 0 0 1 11.441-2.9c2.065.033 4.119.295 6.126.783a33.941 33.941 0 0 1 6.149 2.137 43.546 43.546 0 0 1 11.675 7.971 53.792 53.792 0 0 1 9.707 12.338c.112.2.224.392.335.588.239.393.472.788.7 1.186a53.846 53.846 0 0 1 6.024 15.4 47.806 47.806 0 0 1 1.047 7.655 42.273 42.273 0 0 1-.236 7.35 36.205 36.205 0 0 1-1.5 6.84 30.644 30.644 0 0 1-2.75 6.119 25.08 25.08 0 0 1-21.73 12.546h-.336a30.762 30.762 0 0 1-6.339-.673v.001Zm-30.585-65.669a28.796 28.796 0 0 0-2.583 5.751 34.315 34.315 0 0 0-1.423 6.491 40.341 40.341 0 0 0-.225 7.027 46.061 46.061 0 0 0 1.006 7.357 53.18 53.18 0 0 0 15.792 27.35 45.978 45.978 0 0 0 5.869 4.55 40.435 40.435 0 0 0 6.2 3.319 34.37 34.37 0 0 0 6.332 2.013c2.061.441 4.164.655 6.272.638a23.231 23.231 0 0 0 20.163-11.641 28.796 28.796 0 0 0 2.583-5.751c.183-.56.351-1.129.506-1.708a27.174 27.174 0 0 1-1.833 4.02 21.684 21.684 0 0 1-19.674 11.36 27.864 27.864 0 0 1-6.126-.783 34.012 34.012 0 0 1-6.148-2.138 43.527 43.527 0 0 1-11.675-7.97 55.097 55.097 0 0 1-15.538-26.909 43.557 43.557 0 0 1-1.066-14.1 33.917 33.917 0 0 1 1.224-6.393 28.261 28.261 0 0 1 1.938-4.864 25.835 25.835 0 0 0-1.594 2.38v.001Zm6.931 36.625c10.561 18.293 29.659 27.111 42.573 19.655a19.725 19.725 0 0 0 5.866-5.205l-47.3-58.9c-10.027 8.834-10.782 27.747-1.139 44.449v.001Zm49.535 12.864c6.1-9.705 5.533-25.237-2.359-39.308a51.724 51.724 0 0 0-9.274-11.3 46.048 46.048 0 0 0-5.869-4.55 40.43 40.43 0 0 0-6.2-3.318 34.448 34.448 0 0 0-6.332-2.014 28.87 28.87 0 0 0-6.273-.638 23.733 23.733 0 0 0-10.219 2.355c-.144.099-.286.199-.427.3l46.953 58.473Zm-.365-79.171c-10.807-6.458-20.14-12.035-32.352-17.077a20.557 20.557 0 0 0-7.492-1.31c-1.205-.056-2.451-.114-3.817-.272-7.063-.812-14.877-.626-26.969.644l-1.565.165.618-1.447c1.868-4.365.934-8.959-.055-13.823a47.363 47.363 0 0 1-1.211-8.7 34.98 34.98 0 0 1 1.146-10.04 18.701 18.701 0 0 1 3.066-6.31 14.746 14.746 0 0 1 3.791-3.47 20.136 20.136 0 0 1 3.18-1.6c.38-.159.708-.3.9-.406l.458.8-.373-.846a47.47 47.47 0 0 1 18.487-4.33 49.51 49.51 0 0 1 19.622 3.918l.336.135.155.327c5.111 10.8 9.355 21.017 13.46 30.9 5.018 12.08 9.758 23.489 15.625 34.919l-.832.427-.471.8a3287.647 3287.647 0 0 1-5.707-3.406v.002Zm-43.45-20.493c1.3.15 2.517.206 3.691.261a22.28 22.28 0 0 1 8.113 1.448c12.336 5.093 21.724 10.7 32.594 17.2l2.991 1.785c-5.256-10.552-9.641-21.11-14.264-32.235-4.054-9.758-8.244-19.845-13.268-30.486a47.464 47.464 0 0 0-18.562-3.65 45.625 45.625 0 0 0-17.742 4.159c-.341.177-.692.336-1.049.477a14.122 14.122 0 0 0-6.221 4.493c-2.638 3.433-3.927 8.545-3.83 15.2a45.945 45.945 0 0 0 1.174 8.359 51.12 51.12 0 0 1 1.136 7.434 17.402 17.402 0 0 1-.667 6.051c6.632-.667 11.97-.993 16.635-.993a80.16 80.16 0 0 1 9.268.495l.001.002Zm-151.458 3.685c-24.58-88.892-48.174-161.857-74.243-229.634l1.724-.663c26 67.59 49.532 140.334 74.038 228.856l27.869-9.485a20.368 20.368 0 0 0 6.465-3.084 20.215 20.215 0 0 0 4.1-5.359c.282-.464.573-.945.867-1.41a44.568 44.568 0 0 1 9.472-10.718 49.228 49.228 0 0 1 26.141-10.891 44.598 44.598 0 0 1 14.282.823c.433.1.872.2 1.3.3 2.408.574 4.9 1.168 7.2.641a14.944 14.944 0 0 0 5.163-2.725 281.732 281.732 0 0 0 31.858-26.305 326.753 326.753 0 0 0 27.569-29.88c-4.028-22.063-7.346-39.911-10.013-54.269-6.308-33.945-9.783-52.644-12.974-74.789-3.164-21.957-6.174-48.089-11.83-98.455L231.076 0c5.653 50.346 8.662 76.466 11.822 98.4 3.185 22.108 6.657 40.793 12.961 74.715 2.686 14.45 6.027 32.434 10.092 54.694l.077.419-.268.33a328.782 328.782 0 0 1-27.993 30.389 283.401 283.401 0 0 1-32.067 26.472c-.835.595-1.669 1.17-2.529 1.667a11.884 11.884 0 0 1-3.294 1.355c-2.723.623-5.426-.022-8.041-.645-.419-.1-.853-.2-1.274-.3a45.735 45.735 0 0 0-32.538 5.328 44.127 44.127 0 0 0-15.387 14.639c-.286.454-.573.927-.85 1.385a21.912 21.912 0 0 1-4.509 5.828 22.12 22.12 0 0 1-7.044 3.406l-29.723 10.113-.26-.942Zm4.087-7.008c-5.244-18.878-12.259-43.909-20.018-70.135-8.12-27.446-15.838-52.129-23.6-75.46a1756.92 1756.92 0 0 0-13.259-38.413c-4.721-13.159-9.532-26-14.3-38.165-5.065-12.933-10.239-25.513-15.38-37.392-5.42-12.544-10.975-24.686-16.505-36.096L0 21.95l66.771 37.192.384.214.076.432c3.45 19.507 7.41 39.2 11.768 58.544a1285.13 1285.13 0 0 0 14.483 57.932 1289.42 1289.42 0 0 0 17.164 57.2 1285.59 1285.59 0 0 0 19.814 56.338c1.282 3.4 2.733 7.259 2.345 11.181a12.998 12.998 0 0 1-3.38 7.346 26.84 26.84 0 0 1-6.889 5.381 93.946 93.946 0 0 1-14.935 6.41c-.724.26-1.407.506-2.063.746l-.94.344-.26-.965ZM19.483 59.943c5.149 11.9 10.332 24.5 15.4 37.452a1421.433 1421.433 0 0 1 14.314 38.216 1739.48 1739.48 0 0 1 13.274 38.453c7.77 23.355 15.5 48.055 23.62 75.519 7.631 25.795 14.543 50.433 19.759 69.2l1.131-.408a92.514 92.514 0 0 0 14.636-6.271 25.428 25.428 0 0 0 6.424-5 12.984 12.984 0 0 0 1.994-2.975c.502-1.049.819-2.178.936-3.335.345-3.493-.967-6.978-2.236-10.346a1285.309 1285.309 0 0 1-19.842-56.418 1289.784 1289.784 0 0 1-17.189-57.279 1286.161 1286.161 0 0 1-14.5-58.017 1287.016 1287.016 0 0 1-11.709-58.2L4.208 26.409a940.025 940.025 0 0 1 15.275 33.534Zm99.862 154.731 3.678 6.357a42.459 42.459 0 0 0 9.712 2.016c3.318.319 6.663.218 9.955-.3a31.277 31.277 0 0 0 18.241-9.7 40.893 40.893 0 0 0 6.44-9.328l1.032-2.016 22.868 73.554-1.5-.273a63.374 63.374 0 0 0-12.1-.675c-3.946.12-7.872.618-11.723 1.49a44.987 44.987 0 0 0-12.388 4.764 35.36 35.36 0 0 0-10.644 9.359l-1.107 1.47-22.464-76.718Zm23.213 72.719a37.388 37.388 0 0 1 10.073-8.431 46.867 46.867 0 0 1 12.9-4.964 63.46 63.46 0 0 1 12.077-1.536 69.165 69.165 0 0 1 11.013.482l-20.662-66.425a36.734 36.734 0 0 1-13.441 14 33.805 33.805 0 0 1-11.53 4.055 41.452 41.452 0 0 1-10.42.318 45.811 45.811 0 0 1-8.8-1.673l18.79 64.174Zm72.127-24.259a45.668 45.668 0 0 1-5.084-8.075c-2.833-5.655-4.722-11.723-6.722-18.148-.283-.908-.575-1.847-.867-2.773-8.651-27.473-16.833-54.9-24.318-81.532-7.771-27.643-15.037-55.291-21.6-82.18l-.452-1.858c-2.336-9.6-4.75-19.531-8.073-29.021-1.6-4.586-3.456-9.188-5.249-13.639-2.641-6.556-5.371-13.337-7.373-20.238l1.775-.515c1.975 6.812 4.689 13.549 7.313 20.063 1.8 4.47 3.661 9.093 5.279 13.719 3.352 9.575 5.778 19.55 8.124 29.2l.452 1.858c6.555 26.868 13.816 54.5 21.58 82.117 7.481 26.609 15.657 54.023 24.3 81.477.292.929.586 1.869.868 2.779 3.887 12.486 7.559 24.278 18.322 32.221l-1.1 1.487a37.536 37.536 0 0 1-7.175-6.941v-.001Zm-86.4-51.761a23.897 23.897 0 0 1-8.652-3.806 22.342 22.342 0 0 1-9.359-16.21 23.882 23.882 0 0 1 1.031-9.4 26.133 26.133 0 0 1 4.6-8.566 28.142 28.142 0 0 1 17.491-10.1 26.166 26.166 0 0 1 9.717.3c3.109.68 6.05 1.973 8.652 3.805a22.335 22.335 0 0 1 9.359 16.211 23.882 23.882 0 0 1-1.031 9.4 26.156 26.156 0 0 1-4.6 8.567 28.137 28.137 0 0 1-17.492 10.1c-1.353.21-2.72.315-4.089.316a25.808 25.808 0 0 1-5.63-.616l.003-.001Zm5.386-46.254a26.297 26.297 0 0 0-16.331 9.429 24.321 24.321 0 0 0-4.274 7.963 22.052 22.052 0 0 0-.953 8.672 20.495 20.495 0 0 0 8.586 14.872 22.051 22.051 0 0 0 7.988 3.511c2.967.657 6.03.752 9.032.28a26.285 26.285 0 0 0 16.33-9.427 24.314 24.314 0 0 0 4.273-7.962 22.052 22.052 0 0 0 .953-8.672 20.476 20.476 0 0 0-2.66-8.379 20.482 20.482 0 0 0-5.926-6.494 22.07 22.07 0 0 0-7.987-3.51 23.96 23.96 0 0 0-5.23-.574c-1.273 0-2.543.097-3.801.291Zm-3.293 38.306a16.002 16.002 0 0 1-11.69-17.839l-.126-.026.371-1.81.135.028a16.022 16.022 0 1 1 11.309 19.647h.001Zm-9.914-13.706a14.158 14.158 0 0 0 27.733 1.918l-27.7-5.673a14.135 14.135 0 0 0-.033 3.755Zm28.1.106a14.158 14.158 0 0 0-11.196-15.737 14.165 14.165 0 0 0-10.224 1.788 14.167 14.167 0 0 0-6.258 8.28l27.678 5.669Z"/></svg>